<svg width="430" height="932" viewBox="0 0 430 932" fill="none" xmlns="http://www.w3.org/2000/svg">
  <rect width="430" height="932" rx="36" fill="#F8FAFC"/>
  <rect x="16" y="18" width="398" height="64" rx="20" fill="white" stroke="#E2E8F0"/>
  <text x="34" y="58" fill="#164E63" font-size="24" font-weight="800" font-family="Arial, Helvetica, sans-serif">Travel Agent</text>
  <rect x="322" y="34" width="72" height="30" rx="15" fill="#ECFEFF"/>
  <text x="346" y="54" fill="#0E7490" font-size="14" font-family="Arial, Helvetica, sans-serif">规划中</text>

  <rect x="16" y="98" width="398" height="118" rx="24" fill="white" stroke="#E2E8F0"/>
  <text x="34" y="132" fill="#0F172A" font-size="24" font-weight="800" font-family="Arial, Helvetica, sans-serif">重庆 3 天攻略</text>
  <text x="34" y="164" fill="#64748B" font-size="16" font-family="Arial, Helvetica, sans-serif">2 成人 / 预算 4000 / 轻松版 / 夜景路线</text>
  <rect x="34" y="182" width="102" height="22" rx="11" fill="#DCFCE7"/>
  <text x="52" y="197" fill="#15803D" font-size="12" font-family="Arial, Helvetica, sans-serif">天气已同步</text>
  <rect x="144" y="182" width="114" height="22" rx="11" fill="#ECFEFF"/>
  <text x="164" y="197" fill="#0E7490" font-size="12" font-family="Arial, Helvetica, sans-serif">知识库已检索</text>

  <rect x="16" y="232" width="398" height="86" rx="24" fill="#ECFEFF"/>
  <text x="34" y="268" fill="#164E63" font-size="15" font-weight="700" font-family="Arial, Helvetica, sans-serif">用户</text>
  <text x="34" y="296" fill="#334155" font-size="16" font-family="Arial, Helvetica, sans-serif">帮我规划重庆 3 天攻略，预算 4000，节奏轻松。</text>

  <rect x="16" y="334" width="398" height="126" rx="24" fill="white" stroke="#E2E8F0"/>
  <text x="34" y="370" fill="#0F172A" font-size="15" font-weight="700" font-family="Arial, Helvetica, sans-serif">AI 助手</text>
  <text x="34" y="400" fill="#334155" font-size="16" font-family="Arial, Helvetica, sans-serif">我先给你一版轻松路线，覆盖市区核心景点、</text>
  <text x="34" y="426" fill="#334155" font-size="16" font-family="Arial, Helvetica, sans-serif">夜景点位和一顿本地火锅。</text>

  <text x="16" y="500" fill="#0F172A" font-size="18" font-weight="800" font-family="Arial, Helvetica, sans-serif">快捷操作</text>
  <rect x="16" y="516" width="88" height="36" rx="18" fill="#F1F5F9"/>
  <text x="38" y="539" fill="#0F172A" font-size="14" font-family="Arial, Helvetica, sans-serif">更省钱</text>
  <rect x="112" y="516" width="96" height="36" rx="18" fill="#F1F5F9"/>
  <text x="134" y="539" fill="#0F172A" font-size="14" font-family="Arial, Helvetica, sans-serif">少走路</text>
  <rect x="216" y="516" width="88" height="36" rx="18" fill="#F1F5F9"/>
  <text x="238" y="539" fill="#0F172A" font-size="14" font-family="Arial, Helvetica, sans-serif">加美食</text>
  <rect x="312" y="516" width="102" height="36" rx="18" fill="#F1F5F9"/>
  <text x="334" y="539" fill="#0F172A" font-size="14" font-family="Arial, Helvetica, sans-serif">雨天备选</text>

  <rect x="16" y="572" width="398" height="150" rx="24" fill="white" stroke="#E2E8F0"/>
  <text x="34" y="608" fill="#0F172A" font-size="18" font-weight="800" font-family="Arial, Helvetica, sans-serif">第 1 天</text>
  <text x="34" y="638" fill="#0891B2" font-size="15" font-weight="700" font-family="Arial, Helvetica, sans-serif">上午</text>
  <text x="96" y="638" fill="#334155" font-size="15" font-family="Arial, Helvetica, sans-serif">解放碑 + 八一路好吃街</text>
  <text x="34" y="666" fill="#0891B2" font-size="15" font-weight="700" font-family="Arial, Helvetica, sans-serif">下午</text>
  <text x="96" y="666" fill="#334155" font-size="15" font-family="Arial, Helvetica, sans-serif">山城步道 + 十八梯</text>
  <text x="34" y="694" fill="#0891B2" font-size="15" font-weight="700" font-family="Arial, Helvetica, sans-serif">晚上</text>
  <text x="96" y="694" fill="#334155" font-size="15" font-family="Arial, Helvetica, sans-serif">洪崖洞夜景 + 火锅</text>

  <rect x="16" y="738" width="190" height="102" rx="24" fill="#F8FAFC"/>
  <text x="34" y="776" fill="#0F172A" font-size="18" font-weight="800" font-family="Arial, Helvetica, sans-serif">天气</text>
  <text x="34" y="806" fill="#334155" font-size="15" font-family="Arial, Helvetica, sans-serif">22℃ - 29℃</text>
  <text x="34" y="830" fill="#64748B" font-size="14" font-family="Arial, Helvetica, sans-serif">建议带外套和雨伞</text>

  <rect x="224" y="738" width="190" height="102" rx="24" fill="#F8FAFC"/>
  <text x="242" y="776" fill="#0F172A" font-size="18" font-weight="800" font-family="Arial, Helvetica, sans-serif">预算</text>
  <text x="242" y="806" fill="#334155" font-size="15" font-family="Arial, Helvetica, sans-serif">3200 - 4200</text>
  <text x="242" y="830" fill="#64748B" font-size="14" font-family="Arial, Helvetica, sans-serif">含住宿、餐饮、交通</text>

  <rect x="16" y="856" width="398" height="54" rx="22" fill="white" stroke="#CBD5E1"/>
  <text x="32" y="890" fill="#94A3B8" font-size="15" font-family="Arial, Helvetica, sans-serif">继续修改：酒店区域 / 预算压缩 / 亲子玩法 / 增加美食</text>
</svg>
